<?xml version="1.0" encoding="UTF-8" standalone="no"?>
<svg
   xmlns:dc="http://purl.org/dc/elements/1.1/"
   xmlns:cc="http://creativecommons.org/ns#"
   xmlns:rdf="http://www.w3.org/1999/02/22-rdf-syntax-ns#"
   xmlns:svg="http://www.w3.org/2000/svg"
   xmlns="http://www.w3.org/2000/svg"
   xmlns:sodipodi="http://sodipodi.sourceforge.net/DTD/sodipodi-0.dtd"
   xmlns:inkscape="http://www.inkscape.org/namespaces/inkscape"
   id="Capa_1"
   data-name="Capa 1"
   viewBox="0 0 627.95 878.22"
   version="1.1"
   sodipodi:docname="onboarding_ves_icon.svg"
   inkscape:version="0.92.2 (5c3e80d, 2017-08-06)">
  <metadata
     id="metadata4396">
    <rdf:RDF>
      <cc:Work
         rdf:about="">
        <dc:format>image/svg+xml</dc:format>
        <dc:type
           rdf:resource="http://purl.org/dc/dcmitype/StillImage" />
        <dc:title>onboarding_ves_icon</dc:title>
      </cc:Work>
    </rdf:RDF>
  </metadata>
  <sodipodi:namedview
     pagecolor="#ffffff"
     bordercolor="#666666"
     borderopacity="1"
     objecttolerance="10"
     gridtolerance="10"
     guidetolerance="10"
     inkscape:pageopacity="0"
     inkscape:pageshadow="2"
     inkscape:window-width="1920"
     inkscape:window-height="1027"
     id="namedview4394"
     showgrid="false"
     inkscape:zoom="0.97697619"
     inkscape:cx="30.543598"
     inkscape:cy="471.4585"
     inkscape:window-x="-8"
     inkscape:window-y="-8"
     inkscape:window-maximized="1"
     inkscape:current-layer="Capa_1" />
  <defs
     id="defs4177">
    <style
       id="style4172">.cls-1{fill:none;}.cls-2{clip-path:url(#clip-path);}.cls-3{fill:#1aa59c;}.cls-4{fill:#1aa49c;}.cls-5{fill:#19a39d;}.cls-6{fill:#19a29d;}.cls-7{fill:#19a19d;}.cls-8{fill:#18a09d;}.cls-9{fill:#189f9e;}.cls-10{fill:#179e9e;}.cls-11{fill:#179d9e;}.cls-12{fill:#179c9e;}.cls-13{fill:#169b9f;}.cls-14{fill:#169a9f;}.cls-15{fill:#16999f;}.cls-16{fill:#15989f;}.cls-17{fill:#1597a0;}.cls-18{fill:#1596a0;}.cls-19{fill:#1495a0;}.cls-20{fill:#1494a1;}.cls-21{fill:#1393a1;}.cls-22{fill:#1392a1;}.cls-23{fill:#1391a1;}.cls-24{fill:#1290a2;}.cls-25{fill:#128fa2;}.cls-26{fill:#128ea2;}.cls-27{fill:#118da2;}.cls-28{fill:#118ca3;}.cls-29{fill:#108ba3;}.cls-30{fill:#108aa3;}.cls-31{fill:#1089a3;}.cls-32{fill:#0f88a4;}.cls-33{fill:#0f87a4;}.cls-34{fill:#0f86a4;}.cls-35{fill:#0e85a5;}.cls-36{fill:#0e84a5;}.cls-37{fill:#0e83a5;}.cls-38{fill:#0d82a5;}.cls-39{fill:#0d80a6;}.cls-40{fill:#0c7fa6;}.cls-41{fill:#0c7ea6;}.cls-42{fill:#0c7da6;}.cls-43{fill:#0b7ca7;}.cls-44{fill:#0b7ba7;}.cls-45{fill:#0b7aa7;}.cls-46{fill:#0a79a8;}.cls-47{fill:#0a78a8;}.cls-48{fill:#0a77a8;}.cls-49{fill:#0976a8;}.cls-50{fill:#0975a9;}.cls-51{fill:#0874a9;}.cls-52{fill:#0873a9;}.cls-53{fill:#0872a9;}.cls-54{fill:#0771aa;}.cls-55{fill:#0770aa;}.cls-56{fill:#076faa;}.cls-57{fill:#066eaa;}.cls-58{fill:#066dab;}.cls-59{fill:#056cab;}.cls-60{fill:#fff;}.cls-61{fill:#ffce00;}.cls-62{fill:#8b572a;}.cls-63{fill:#dfdfe3;}.cls-64{fill:#ffa21a;}.cls-65{fill:#4d3325;opacity:0.5;}.cls-65,.cls-68{isolation:isolate;}.cls-66{fill:#81cc3b;}.cls-67{fill:#7bba38;}.cls-68{opacity:0.1;}</style>
    <clipPath
       id="clip-path">
      <circle
         class="cls-1"
         cx="313.97"
         cy="168.05"
         r="138.51"
         id="circle4174" />
    </clipPath>
  </defs>
  <title
     id="title4179">onboarding_ves_icon</title>
  <rect
     class="cls-61"
     x="352.29"
     y="404.47"
     width="46.5"
     height="10.5"
     id="rect4311" />
  <path
     class="cls-62"
     d="M535.94,430V575.19h-.86a7.5,7.5,0,0,0-7.5,7.5h0v2.83h-48a19.63,19.63,0,0,1-2.86-2.82c-1.87-2.34-3.29-5.82-4.8-9.5-2.41-5.88-5.13-12.54-10.84-17.1s-12.76-5.71-19-6.75c-3.94-.66-7.66-1.28-10.39-2.59s-5.37-3.76-8.28-6.39c-4.75-4.29-10.13-9.16-17.36-10.8-7-1.59-13.81.41-19.84,2.17-3.89,1.14-7.57,2.22-10.7,2.22s-6.81-1.08-10.71-2.22c-6-1.76-12.86-3.76-19.83-2.17-7.23,1.64-12.62,6.51-17.36,10.8-2.91,2.63-5.66,5.12-8.28,6.39s-6.46,1.93-10.4,2.59c-6.25,1-13.33,2.22-19,6.75s-8.43,11.22-10.84,17.1c-1.5,3.68-2.93,7.16-4.8,9.51a19.63,19.63,0,0,1-2.86,2.81h-48v-2.83a7.5,7.5,0,0,0-7.5-7.5h-.86V430H535.94ZM517,555.38a7.51,7.51,0,0,0-5.71-13.89L485.93,552a7.5,7.5,0,0,0,2.87,14.4,7.65,7.65,0,0,0,2.87-.57Zm-34.63-45.75a7.5,7.5,0,1,0-10.43-10.78l-.18.18L459,511.77a7.5,7.5,0,1,0,10.61,10.61Zm-42.49-39.48A7.51,7.51,0,0,0,426,464.38h0L415.52,489.7a7.5,7.5,0,0,0,4.06,9.8h0a7.64,7.64,0,0,0,2.86.57,7.51,7.51,0,0,0,6.94-4.63ZM383,479.5v-18a7.5,7.5,0,0,0-15,0v18a7.5,7.5,0,0,0,15,0Zm-51.54,20a7.52,7.52,0,0,0,4.06-9.8l-10.49-25.32a7.5,7.5,0,1,0-13.86,5.74h0l10.49,25.32a7.49,7.49,0,0,0,6.93,4.63,7.65,7.65,0,0,0,2.87-.57Zm-39.45,22.88a7.49,7.49,0,0,0,0-10.59h0L279.28,499a7.5,7.5,0,0,0-10.79,10.42l.18.18,12.77,12.78a7.5,7.5,0,0,0,10.61,0Zm-22.84,39.4a7.51,7.51,0,0,0-4.06-9.8l-25.32-10.49a7.51,7.51,0,1,0-5.74,13.89h0l25.32,10.49a7.64,7.64,0,0,0,2.87.51A7.51,7.51,0,0,0,269.21,561.78Z"
     id="path4313" />
  <path
     class="cls-62"
     d="M527.58,634.17V744.38A66,66,0,0,0,501.2,790H249.88a66,66,0,0,0-26.38-45.57V634.17H332.06v43.11a7.5,7.5,0,0,0,7.5,7.5h72a7.5,7.5,0,0,0,7.5-7.5V634.17Z"
     id="path4315" />
  <path
     class="cls-61"
     d="M375.54,628a7.41,7.41,0,1,1-7.42,7.41A7.41,7.41,0,0,1,375.54,628Z"
     id="path4317" />
  <path
     class="cls-63"
     d="M404,601v68.82H347.06V601H404ZM398,635.38a22.42,22.42,0,1,0-22.43,22.41h0A22.44,22.44,0,0,0,398,635.38Z"
     id="path4319" />
  <path
     class="cls-61"
     d="M208.5,590.19V736.06a65.49,65.49,0,0,0-16.68-4.17V590.19Z"
     id="path4321" />
  <polygon
     class="cls-61"
     points="332.06 600.52 332.06 619.17 223.5 619.17 223.5 600.52 225.53 600.52 332.06 600.52"
     id="polygon4323" />
  <rect
     class="cls-61"
     x="419.01"
     y="600.52"
     width="108.57"
     height="18.65"
     id="rect4325" />
  <path
     class="cls-61"
     d="M559.28,590.19v141.7a65.28,65.28,0,0,0-16.68,4.17V590.19Z"
     id="path4327" />
  <path
     class="cls-61"
     d="M559.28,747V790h-43A51.11,51.11,0,0,1,559.28,747Z"
     id="path4329" />
  <path
     class="cls-61"
     d="M234.76,790H191.82V747A51.12,51.12,0,0,1,234.76,790Z"
     id="path4331" />
  <path
     class="cls-64"
     d="M461,585.52H290.09c1.08-2.19,2-4.43,2.91-6.64,1.88-4.6,3.65-8.94,6.31-11.06s7.23-2.86,12.11-3.67,9.79-1.63,14.46-3.88,8.25-5.55,11.82-8.77,7.22-6.53,10.62-7.31c3.17-.72,7.61.58,12.3,1.95,4.52,1.32,9.64,2.82,14.92,2.82s10.4-1.5,14.92-2.82c4.69-1.37,9.12-2.67,12.3-1.94,3.4.77,6.9,3.94,10.61,7.3s7.26,6.56,11.83,8.77,9.64,3.07,14.45,3.88,9.49,1.57,12.12,3.67,4.43,6.46,6.3,11C459,581.08,459.9,583.38,461,585.52Z"
     id="path4333" />
  <path
     d="M574.28,582.69V797.45a7.5,7.5,0,0,1-7.5,7.5H184.28a7.5,7.5,0,0,1-7.5-7.5V582.69a7.5,7.5,0,0,1,7.5-7.5H200.1V422.47a7.5,7.5,0,0,1,7.5-7.5H337.28V397a7.5,7.5,0,0,1,7.5-7.5h61.5a7.5,7.5,0,0,1,7.5,7.5h0v18H543.44a7.5,7.5,0,0,1,7.5,7.5V575.19h15.82a7.5,7.5,0,0,1,7.52,7.48ZM559.28,790V747a51.11,51.11,0,0,0-43,42.94Zm0-58.06V590.19h-16.7V736.06A65.28,65.28,0,0,1,559.28,731.89ZM536,575.19V430H215.14V575.19H216a7.5,7.5,0,0,1,7.5,7.5h0v2.83h48a19.63,19.63,0,0,0,2.86-2.81c1.87-2.35,3.3-5.83,4.8-9.51,2.41-5.88,5.13-12.54,10.84-17.1s12.76-5.71,19-6.75c3.94-.66,7.67-1.28,10.4-2.59s5.37-3.76,8.28-6.39c4.74-4.29,10.13-9.16,17.36-10.8,7-1.59,13.8.41,19.83,2.17,3.9,1.14,7.58,2.22,10.71,2.22s6.81-1.08,10.7-2.22c6-1.76,12.87-3.76,19.84-2.17,7.23,1.64,12.61,6.51,17.36,10.8,2.91,2.63,5.65,5.12,8.28,6.39s6.45,1.93,10.39,2.59c6.25,1,13.34,2.22,19,6.75s8.43,11.22,10.84,17.1c1.51,3.68,2.93,7.16,4.8,9.5a19.64,19.64,0,0,0,2.86,2.82h48v-2.83a7.5,7.5,0,0,1,7.5-7.5H536Zm-8.38,169.19V634.17H419v43.11a7.5,7.5,0,0,1-7.5,7.5H339.56a7.5,7.5,0,0,1-7.5-7.5V634.17H223.5V744.38A66,66,0,0,1,249.88,790H501.2A66,66,0,0,1,527.58,744.38Zm0-125.21V600.52H419v18.65ZM290.09,585.52H461c-1.08-2.19-2-4.44-2.91-6.65-1.87-4.59-3.65-8.93-6.3-11s-7.24-2.86-12.12-3.67-9.79-1.63-14.45-3.88-8.26-5.55-11.83-8.77-7.21-6.53-10.61-7.3c-3.18-.73-7.61.57-12.3,1.94-4.52,1.32-9.64,2.82-14.92,2.82s-10.4-1.5-14.92-2.82c-4.69-1.37-9.13-2.67-12.3-1.95-3.4.78-6.91,3.95-10.62,7.31s-7.26,6.56-11.82,8.77-9.65,3.07-14.46,3.88-9.48,1.57-12.11,3.67-4.43,6.46-6.31,11.06C292.09,581.09,291.17,583.38,290.09,585.52ZM404,669.78V601H347.06v68.82ZM398.79,415v-10.5H352.28V415Zm-66.73,204.2V600.52H223.5v18.65ZM216,790h18.76A51.12,51.12,0,0,0,191.82,747V790Zm-7.5-53.89V590.19H191.82v141.7A65.49,65.49,0,0,1,208.5,736.06Z"
     id="path4335" />
  <path
     class="cls-64"
     d="M488.8,572.38a13.5,13.5,0,0,1-5.16-26L509,535.89a13.53,13.53,0,0,1,10.33,25h0L494,571.38A13.68,13.68,0,0,1,488.8,572.38Z"
     id="path4337" />
  <path
     d="M514.12,540.92A7.5,7.5,0,0,1,517,555.38l-25.32,10.49a7.65,7.65,0,0,1-2.87.57A7.5,7.5,0,0,1,485.93,552l25.35-10.52a7.47,7.47,0,0,1,2.87-.58m0-12h0a19.39,19.39,0,0,0-7.47,1.49l-25.31,10.49a19.48,19.48,0,0,0,14.8,36h0l25.32-10.49A19.5,19.5,0,0,0,514,528.93Z"
     id="path4339" />
  <path
     class="cls-64"
     d="M464.28,530.54a13.51,13.51,0,0,1-9.55-23l12.73-12.74a13.5,13.5,0,0,1,19.37,18.81l-.27.27-12.69,12.7A13.41,13.41,0,0,1,464.28,530.54Z"
     id="path4341" />
  <path
     d="M477.06,496.8a7.5,7.5,0,0,1,5.3,12.81l-12.73,12.77A7.5,7.5,0,0,1,459,511.78L471.75,499a7.47,7.47,0,0,1,5.31-2.21m0-12h0a19.37,19.37,0,0,0-13.78,5.7l-12.72,12.73a19.5,19.5,0,0,0,27.58,27.57l12.73-12.74a19.5,19.5,0,0,0-13.79-33.29Z"
     id="path4343" />
  <path
     class="cls-64"
     d="M422.44,506.07A13.51,13.51,0,0,1,410,487.39l10.49-25.31a13.52,13.52,0,1,1,25,10.32L435,497.73A13.48,13.48,0,0,1,422.44,506.07Z"
     id="path4345" />
  <path
     d="M432.93,459.75a7.51,7.51,0,0,1,6.93,10.38l-10.48,25.31a7.51,7.51,0,0,1-6.94,4.63,7.64,7.64,0,0,1-2.86-.57,7.5,7.5,0,0,1-4.06-9.8h0L426,464.38a7.49,7.49,0,0,1,6.93-4.64m0-12h0a19.43,19.43,0,0,0-18,12.06l-10.48,25.3A19.5,19.5,0,0,0,415,510.58h.1A19.5,19.5,0,0,0,440.49,500L451,474.67a19.51,19.51,0,0,0-18-27Z"
     id="path4347" />
  <path
     d="M375.54,613a22.41,22.41,0,1,1-22.42,22.42A22.41,22.41,0,0,1,375.54,613ZM383,635.38a7.42,7.42,0,1,0-7.43,7.41h0A7.42,7.42,0,0,0,383,635.38Z"
     id="path4349" />
  <path
     class="cls-64"
     d="M375.54,493a13.52,13.52,0,0,1-13.5-13.5v-18a13.5,13.5,0,0,1,27,0h0v18A13.52,13.52,0,0,1,375.54,493Z"
     id="path4351" />
  <path
     d="M375.54,454a7.5,7.5,0,0,1,7.5,7.5h0v18a7.5,7.5,0,0,1-15,0v-18a7.49,7.49,0,0,1,7.48-7.5h0m0-12a19.52,19.52,0,0,0-19.5,19.5v18a19.5,19.5,0,0,0,39,0v-18A19.52,19.52,0,0,0,375.54,442Z"
     id="path4353" />
  <path
     class="cls-64"
     d="M328.63,506.07a13.45,13.45,0,0,1-12.48-8.35l-10.49-25.34a13.5,13.5,0,1,1,24.83-10.6l.11.26,10.5,25.34A13.53,13.53,0,0,1,333.8,505,13.68,13.68,0,0,1,328.63,506.07Z"
     id="path4355" />
  <path
     d="M318.13,459.75a7.51,7.51,0,0,1,6.93,4.64l10.49,25.32a7.52,7.52,0,0,1-4.06,9.8,7.65,7.65,0,0,1-2.87.57,7.49,7.49,0,0,1-6.93-4.63L311.2,470.13a7.51,7.51,0,0,1,6.93-10.38m0-12h0a19.5,19.5,0,0,0-18,27l10.49,25.31A19.5,19.5,0,0,0,336,510.65h.12a19.54,19.54,0,0,0,10.54-25.47l-10.49-25.33a19.46,19.46,0,0,0-18-12Z"
     id="path4357" />
  <path
     class="cls-64"
     d="M286.75,530.54a13.46,13.46,0,0,1-9.54-3.94l-12.75-12.76a13.5,13.5,0,1,1,18.83-19.35l.27.27,12.72,12.74a13.5,13.5,0,0,1-9.54,23Z"
     id="path4359" />
  <path
     d="M274,496.8a7.49,7.49,0,0,1,5.31,2.2l12.73,12.74a7.51,7.51,0,0,1-10.61,10.64l-12.73-12.74a7.5,7.5,0,0,1,5.3-12.8m0-12a19.5,19.5,0,0,0-13.79,33.29L273,530.87a19.5,19.5,0,0,0,27.93-27.22l-.35-.35L287.8,490.56a19.39,19.39,0,0,0-13.8-5.72Z"
     id="path4361" />
  <path
     class="cls-64"
     d="M262.28,572.38a13.59,13.59,0,0,1-5.11-1L231.8,560.87a13.5,13.5,0,1,1,10.08-25l.26.11,25.32,10.49a13.5,13.5,0,0,1-5.18,26Z"
     id="path4363" />
  <path
     d="M237,540.92a7.48,7.48,0,0,1,2.87.58L265.14,552a7.5,7.5,0,0,1-2.86,14.39,7.64,7.64,0,0,1-2.86-.57l-25.33-10.43A7.5,7.5,0,0,1,237,540.94m0-12h0a19.5,19.5,0,0,0-7.47,37.52L254.82,577h0a19.5,19.5,0,0,0,14.82-36.07l-25.22-10.5a19.38,19.38,0,0,0-7.47-1.49Z"
     id="path4365" />
  <path
     class="cls-65"
     d="M243.54,697.38h64a10.67,10.67,0,0,0,0-21.33h-64a10.67,10.67,0,0,0-.65,21.33Z"
     id="path4367" />
  <path
     class="cls-65"
     d="M304.13,746.73h64a10.67,10.67,0,0,0,0-21.33h-64a10.67,10.67,0,1,0-.65,21.33h.65Z"
     id="path4369" />
  <path
     class="cls-65"
     d="M438.69,716.49h64a10.67,10.67,0,0,0,.65-21.33H438.69a10.67,10.67,0,0,0-.65,21.33Z"
     id="path4371" />
  <path
     class="cls-65"
     d="M396,792.82h64a10.67,10.67,0,0,0,.65-21.33H396a10.67,10.67,0,0,0-.65,21.33Z"
     id="path4373" />
  <path
     d="M223.59,652.91l-81.76-28.86a4.81,4.81,0,0,0-3.2,0L56.87,652.91a4.82,4.82,0,0,0-3.21,4.54v57.71c0,74.68,11.07,102,84.4,139a4.79,4.79,0,0,0,4.33,0c73.33-37,84.4-64.27,84.4-139V657.45A4.82,4.82,0,0,0,223.59,652.91Z"
     id="path4375" />
  <path
     class="cls-66"
     d="M140.23,636.92,68,660.85l-2.08,54.31c0,8.7.14,16.66.49,24h73.81Z"
     id="path4377" />
  <path
     class="cls-67"
     d="M216.68,739.2c.36-7.38.5-15.34.5-24L215,660.89l-74.8-25V739.2Z"
     id="path4379" />
  <path
     class="cls-66"
     d="M140.23,737.05V840.12c59.57-30.37,73.85-49.8,76.45-103.07Z"
     id="path4381" />
  <path
     class="cls-67"
     d="M65.94,737.05c2.59,53.27,14.72,72.7,74.29,103.07V737.05Z"
     id="path4383" />
  <path
     class="cls-68"
     d="M140.23,823.62C72.4,789,63.28,775.5,63.28,704v9c0,71.53,9.12,94.69,77,129.27,67.83-34.58,77-57.73,77-129.27v-9C217.18,775.5,208.06,789,140.23,823.62Z"
     id="path4385" />
  <path
     d="M111.38,710.38a28.79,28.79,0,0,0,10.44,22.19l-5.58,39.66a4.81,4.81,0,0,0,4.76,5.48h38.5a4.81,4.81,0,0,0,4.76-5.48l-5.58-39.66a28.85,28.85,0,1,0-47.3-22.19Z"
     id="path4387" />
  <path
     class="cls-63"
     d="M159.5,710.38a19.23,19.23,0,0,1-8.63,16,4.82,4.82,0,0,0-2.1,4.68l5.2,37H126.5l5.2-37a4.82,4.82,0,0,0-2.1-4.68,19.23,19.23,0,1,1,29.9-16Z"
     id="path4389" />
  <path
     class="cls-68"
     d="M135.77,768.06l4.78-34a4.82,4.82,0,0,0-2.1-4.68,19.23,19.23,0,0,1,10.6-35.27c.59,0,1.15.12,1.73.17a19.22,19.22,0,0,0-21.15,32.1,4.82,4.82,0,0,1,2.1,4.68l-5.2,37Z"
     id="path4391" />
  <g
     transform="matrix(0.66666665,0,0,-0.66666665,211.04631,466.04271)"
     id="g10">
    <g
       transform="scale(0.1)"
       id="g12">
      <path
         inkscape:connector-curvature="0"
         id="path14"
         style="fill:#ef0000;fill-opacity:1;fill-rule:nonzero;stroke:none"
         d="M 1424.57,6590.99 2321.88,4370.48 2102.5,4281.73 1205.16,6502.82 Z" />
      <path
         inkscape:connector-curvature="0"
         id="path16"
         style="fill:none;stroke:#ef0000;stroke-width:0.61629301;stroke-linecap:butt;stroke-linejoin:round;stroke-miterlimit:4;stroke-dasharray:none;stroke-opacity:1"
         d="m 1424.57,6590.98 897.31,-2220.5 -219.38,-88.75 -897.34,2221.09 z" />
      <path
         inkscape:connector-curvature="0"
         id="path18"
         style="fill:#ef0000;fill-opacity:1;fill-rule:nonzero;stroke:none"
         d="m 2139.45,4289.74 -897.3,2221.13 155.94,62.22 897.3,-2220.5 z M 931.52,6385.13 c -86.872,214.45 17.269,458.51 231.72,545.43 214.49,86.87 458.56,-17.27 545.43,-231.72 86.92,-214.5 -17.26,-458.56 -231.72,-545.43 -214.45,-86.92 -458.51,17.26 -545.43,231.72 z" />
      <path
         inkscape:connector-curvature="0"
         id="path20"
         style="fill:none;stroke:#ef0000;stroke-width:0.61629301;stroke-linecap:butt;stroke-linejoin:round;stroke-miterlimit:4;stroke-dasharray:none;stroke-opacity:1"
         d="m 2139.45,4289.73 -897.3,2221.13 155.94,62.23 897.3,-2220.5 z M 931.52,6385.13 c -86.872,214.44 17.269,458.51 231.72,545.42 214.49,86.88 458.56,-17.25 545.43,-231.71 86.92,-214.5 -17.26,-458.55 -231.72,-545.43 -214.45,-86.91 -458.51,17.27 -545.43,231.72 z" />
      <path
         inkscape:connector-curvature="0"
         id="path22"
         style="fill:#414141;fill-opacity:1;fill-rule:nonzero;stroke:none"
         d="m 2139.45,4352.59 897.35,2220.5 155.93,-62.22 -897.34,-2221.13 z m 466.57,-188.6 c -86.92,-214.45 -330.98,-318 -545.43,-231.72 -214.46,86.92 -318.64,330.94 -231.72,546.06 86.87,214.45 330.93,318.01 545.43,231.09 214.45,-86.29 318.59,-330.93 231.72,-545.43 z m 120.15,2534.85 c 86.92,214.45 330.98,318.59 545.43,231.72 214.45,-86.92 318.63,-330.98 231.72,-545.43 -86.87,-214.46 -330.94,-318.64 -545.43,-231.72 -215.08,86.87 -318.59,330.93 -231.72,545.43 z" />
      <path
         inkscape:connector-curvature="0"
         id="path24"
         style="fill:none;stroke:#414141;stroke-width:0.61629301;stroke-linecap:butt;stroke-linejoin:round;stroke-miterlimit:4;stroke-dasharray:none;stroke-opacity:1"
         d="m 2139.45,4352.59 897.35,2220.5 155.93,-62.23 -897.34,-2221.13 z M 2606.02,4164 c -86.92,-214.46 -330.98,-318.02 -545.43,-231.73 -214.46,86.91 -318.64,330.94 -231.72,546.05 86.87,214.47 330.93,318.02 545.43,231.11 214.45,-86.29 318.59,-330.95 231.72,-545.43 z m 120.15,2534.84 c 86.92,214.46 330.98,318.59 545.43,231.71 214.45,-86.91 318.63,-330.98 231.72,-545.42 -86.87,-214.45 -330.94,-318.63 -545.43,-231.72 -215.08,86.88 -318.59,330.93 -231.72,545.43 z" />
      <path
         inkscape:connector-curvature="0"
         id="path26"
         style="fill:#414141;fill-opacity:1;fill-rule:nonzero;stroke:none"
         d="M 1242.15,2071.06 344.84,4292.2 500.738,4354.42 1398.09,2133.95 Z m 466.52,188.6 c 86.92,-215.08 -17.26,-459.14 -231.72,-546.02 -214.45,-86.29 -458.51,17.23 -545.43,231.72 -86.872,214.45 16.64,459.14 231.72,545.39 214.49,86.91 458.56,-16.6 545.43,-231.09 z M 34.2188,4166.45 c -86.918,214.5 17.2617,458.56 231.7222,545.43 214.45,86.92 458.508,-17.26 545.43,-231.72 C 898.238,4265.71 794.102,4021.65 579.648,3934.74 365.16,3847.86 121.09,3952 34.2188,4166.45 Z" />
      <path
         inkscape:connector-curvature="0"
         id="path28"
         style="fill:none;stroke:#414141;stroke-width:0.61629301;stroke-linecap:butt;stroke-linejoin:round;stroke-miterlimit:4;stroke-dasharray:none;stroke-opacity:1"
         d="M 1242.15,2071.07 344.84,4292.2 500.738,4354.43 1398.09,2133.95 Z m 466.52,188.59 c 86.92,-215.09 -17.26,-459.14 -231.72,-546.02 -214.45,-86.28 -458.51,17.22 -545.43,231.72 -86.872,214.46 16.64,459.14 231.72,545.39 214.49,86.91 458.56,-16.61 545.43,-231.09 z M 34.2188,4166.45 c -86.918,214.5 17.2617,458.55 231.7222,545.44 214.45,86.91 458.508,-17.28 545.43,-231.73 C 898.238,4265.71 794.102,4021.64 579.648,3934.73 365.16,3847.86 121.09,3952 34.2188,4166.45 Z" />
      <path
         inkscape:connector-curvature="0"
         id="path30"
         style="fill:#414141;fill-opacity:1;fill-rule:nonzero;stroke:none"
         d="m 1242.15,2133.95 897.3,2220.47 155.94,-62.22 -897.3,-2221.14 z m 466.52,-188.59 c -86.87,-214.49 -330.94,-318.01 -545.43,-231.72 -214.451,86.88 -318.592,330.94 -231.72,546.02 86.92,214.49 330.98,318 545.43,231.09 214.46,-86.25 318.64,-330.94 231.72,-545.39 z m 120.2,2534.8 c 86.87,214.46 330.93,318.64 545.43,231.72 214.45,-86.87 318.59,-330.93 231.72,-545.43 -86.92,-214.45 -330.98,-318.59 -545.43,-231.71 -215.08,86.91 -318.64,330.97 -231.72,545.42 z" />
      <path
         inkscape:connector-curvature="0"
         id="path32"
         style="fill:none;stroke:#414141;stroke-width:0.61629301;stroke-linecap:butt;stroke-linejoin:round;stroke-miterlimit:4;stroke-dasharray:none;stroke-opacity:1"
         d="m 1242.15,2133.95 897.3,2220.48 155.94,-62.23 -897.3,-2221.13 z m 466.52,-188.59 c -86.87,-214.5 -330.94,-318 -545.43,-231.72 -214.451,86.88 -318.592,330.93 -231.72,546.02 86.92,214.48 330.98,318 545.43,231.09 214.46,-86.25 318.64,-330.93 231.72,-545.39 z m 120.2,2534.8 c 86.87,214.45 330.93,318.64 545.43,231.73 214.45,-86.89 318.59,-330.94 231.72,-545.44 -86.92,-214.45 -330.98,-318.59 -545.43,-231.72 -215.08,86.91 -318.64,330.98 -231.72,545.43 z" />
      <path
         inkscape:connector-curvature="0"
         id="path34"
         style="fill:#414141;fill-opacity:1;fill-rule:nonzero;stroke:none"
         d="M 3219.22,6502.82 1424.57,2060.59 1205.16,2149.34 2999.8,6590.99 Z" />
      <path
         inkscape:connector-curvature="0"
         id="path36"
         style="fill:none;stroke:#414141;stroke-width:0.61629301;stroke-linecap:butt;stroke-linejoin:round;stroke-miterlimit:4;stroke-dasharray:none;stroke-opacity:1"
         d="M 3219.22,6502.82 1424.57,2060.59 1205.16,2149.34 2999.8,6590.98 Z" />
      <path
         inkscape:connector-curvature="0"
         id="path38"
         style="fill:#414141;fill-opacity:1;fill-rule:nonzero;stroke:none"
         d="m 527.27,4372.31 897.3,-2220.5 -219.41,-88.75 -897.308,2221.13 z" />
      <path
         inkscape:connector-curvature="0"
         id="path40"
         style="fill:none;stroke:#414141;stroke-width:0.61629301;stroke-linecap:butt;stroke-linejoin:round;stroke-miterlimit:4;stroke-dasharray:none;stroke-opacity:1"
         d="M 527.27,4372.32 1424.57,2151.8 1205.16,2063.05 307.852,4284.18 Z" />
    </g>
  </g>
</svg>
