<?xml version="1.0" standalone="no"?>
<!DOCTYPE svg PUBLIC "-//W3C//DTD SVG 20010904//EN"
 "http://www.w3.org/TR/2001/REC-SVG-20010904/DTD/svg10.dtd">
<svg version="1.0" xmlns="http://www.w3.org/2000/svg"
 width="314.000000pt" height="314.000000pt" viewBox="0 0 314.000000 314.000000"
 preserveAspectRatio="xMidYMid meet">
<metadata>
Created by potrace 1.11, written by Peter Selinger 2001-2013
</metadata>
<g transform="translate(0.000000,314.000000) scale(0.100000,-0.100000)"
fill="#000000" stroke="none">
<path d="M1638 2899 c-215 -34 -428 -168 -536 -336 -19 -31 -34 -43 -52 -44
-159 -5 -301 -66 -415 -177 -30 -30 -55 -58 -55 -63 0 -5 -35 -9 -78 -9 -144
0 -262 -50 -358 -152 -43 -46 -62 -78 -118 -197 -6 -13 -11 -67 -11 -120 0
-84 4 -105 29 -166 38 -90 57 -118 124 -183 60 -57 146 -103 227 -120 34 -8
402 -11 1160 -11 1045 0 1114 1 1180 19 173 45 336 199 371 350 4 19 9 42 11
50 24 103 4 268 -43 360 -90 177 -284 291 -488 287 -75 -2 -79 -1 -87 23 -39
105 -131 232 -233 318 -56 48 -194 125 -245 138 -136 33 -179 41 -251 41 -47
0 -106 -3 -132 -8z"/>
<path d="M555 1121 c-166 -47 -283 -165 -326 -328 -55 -209 45 -429 236 -523
260 -128 562 4 646 283 l21 67 519 0 519 0 0 -162 c0 -90 4 -169 9 -176 5 -9
30 -12 87 -10 l79 3 3 78 3 77 119 0 119 0 3 -77 3 -78 85 0 85 0 3 173 2 172
58 0 c32 0 63 5 70 12 17 17 16 123 -1 137 -10 8 -265 12 -896 13 l-883 3 -18
52 c-45 129 -166 242 -300 282 -68 21 -176 21 -245 2z m251 -166 c229 -112
229 -436 0 -552 -195 -99 -433 42 -442 261 -3 72 14 130 55 189 85 124 252
168 387 102z"/>
</g>
</svg>
